HIERARCHY
ROOT hip
{
	OFFSET 0.000000 0.000000 0.000000
	CHANNELS 6 Xposition Yposition Zposition Xrotation Zrotation Yrotation 
	JOINT abdomen
	{
		OFFSET 0.000000 3.422050 0.000000
		CHANNELS 3 Xrotation Zrotation Yrotation 
		JOINT chest
		{
			OFFSET 0.000000 8.486693 -0.684411
			CHANNELS 3 Xrotation Zrotation Yrotation 
			JOINT neck
			{
				OFFSET 0.000000 10.266162 -0.273764
				CHANNELS 3 Xrotation Zrotation Yrotation 
				JOINT head
				{
					OFFSET 0.000000 3.148285 0.000000
					CHANNELS 3 Xrotation Zrotation Yrotation 
					End Site
					{
						OFFSET 0.000000 3.148289 0.000000
					}
				}
			}
			JOINT lCollar
			{
				OFFSET 3.422053 6.707223 -0.821293
				CHANNELS 3 Yrotation Zrotation Xrotation 
				JOINT lShldr
				{
					OFFSET 3.285171 0.000000 0.000000
					CHANNELS 3 Zrotation Yrotation Xrotation 
					JOINT lForeArm
					{
						OFFSET 10.129278 0.000000 0.000000
						CHANNELS 3 Yrotation Zrotation Xrotation 
						JOINT lHand
						{
							OFFSET 8.486692 0.000000 0.000000
							CHANNELS 3 Zrotation Yrotation Xrotation 
							End Site
							{
								OFFSET 4.106464 0.000000 0.000000
							}
						}
					}
				}
			}
			JOINT rCollar
			{
				OFFSET -3.558935 6.707223 -0.821293
				CHANNELS 3 Yrotation Zrotation Xrotation 
				JOINT rShldr
				{
					OFFSET -3.148289 0.000000 0.000000
					CHANNELS 3 Zrotation Yrotation Xrotation 
					JOINT rForeArm
					{
						OFFSET -10.266159 0.000000 0.000000
						CHANNELS 3 Yrotation Zrotation Xrotation 
						JOINT rHand
						{
							OFFSET -8.349810 0.000000 0.000000
							CHANNELS 3 Zrotation Yrotation Xrotation 
							End Site
							{
								OFFSET -4.106464 0.000000 0.000000
							}
						}
					}
				}
			}
		}
	}
	JOINT lThigh
	{
		OFFSET 5.338403 -1.642589 1.368821
		CHANNELS 3 Xrotation Zrotation Yrotation 
		JOINT lShin
		{
			OFFSET -2.053232 -20.121670 0.000000
			CHANNELS 3 Xrotation Zrotation Yrotation 
			JOINT lFoot
			{
				OFFSET 0.000000 -19.300380 -1.231939
				CHANNELS 3 Xrotation Yrotation Zrotation 
				End Site
				{
					OFFSET 0.000000 -2.463878 4.653993
				}
			}
		}
	}
	JOINT rThigh
	{
		OFFSET -5.338403 -1.642589 1.368821
		CHANNELS 3 Xrotation Zrotation Yrotation 
		JOINT rShin
		{
			OFFSET 2.053232 -20.121670 0.000000
			CHANNELS 3 Xrotation Zrotation Yrotation 
			JOINT rFoot
			{
				OFFSET 0.000000 -19.300380 -1.231939
				CHANNELS 3 Xrotation Yrotation Zrotation 
				End Site
				{
					OFFSET 0.000000 -2.463878 4.653993
				}
			}
		}
	}
}
MOTION
Frames: 8
Frame Time: 0.033315
1.360692 4.254616 9.933361 -0.027859 86.000122 89.973763 -0.344328 -0.723901 -0.576606 -0.439931 -0.625970 -0.450480 0.000000 0.000000 0.000000 10.058076 -3.940363 -6.242908 0.270927 -8.009708 -0.010830 22.995464 -4.006135 -0.002841 -82.954788 -15.235850 -46.010075 -19.002018 -0.003718 -17.001503 -0.002182 7.999156 -0.194408 71.736679 3.998933 18.547716 35.835835 -17.728292 -9.650358 7.066897 0.000000 0.000000 -26.152355 10.975475 -0.001708 57.222641 -1.972635 -0.090052 8.884896 0.934340 2.654958 -8.175986 -24.468401 -0.001775 15.480986 2.337881 0.158973 27.979666 -0.075851 -2.177883 
1.360692 4.254616 9.933361 -0.027859 86.000122 89.973763 -0.344328 -0.723901 -0.576606 -0.439931 -0.625970 -0.450480 0.000000 0.000000 0.000000 10.026431 -4.095340 -5.293968 0.270927 -8.009708 -0.010830 22.995464 -4.006135 -0.002841 -82.954788 -15.235850 -46.010075 -19.002018 -0.003718 -17.001503 -0.002182 7.999156 -0.194408 71.736679 3.998933 18.547716 35.506775 -17.728329 -9.705164 7.066615 0.000000 0.000000 -26.152355 10.975475 -0.001708 57.222641 -1.972635 -0.090052 8.884896 0.934340 2.654958 -8.175891 -24.468405 -0.001780 15.480803 2.337881 0.158976 27.979666 -0.075851 -2.177883 
1.360692 4.254616 9.933361 -0.027859 86.000122 89.973763 -0.344328 -0.723901 -0.576606 -0.439931 -0.625970 -0.450480 0.000000 0.000000 0.000000 9.992163 -4.249992 -4.343404 0.270927 -8.009708 -0.010830 22.995464 -4.006135 -0.002841 -82.954788 -15.235850 -46.010075 -19.002018 -0.003718 -17.001503 -0.002182 7.999156 -0.194408 71.736679 3.998933 18.547716 35.178150 -17.728069 -9.759899 7.066334 0.000000 0.000000 -26.152355 10.975475 -0.001708 57.222641 -1.972635 -0.090052 8.884896 0.934340 2.654958 -8.175797 -24.468414 -0.001786 15.480618 2.337880 0.158979 27.979666 -0.075851 -2.177883 
1.360692 4.254616 9.933361 -0.027859 86.000122 89.973763 -0.344328 -0.723901 -0.576606 -0.439931 -0.625970 -0.450480 0.000000 0.000000 0.000000 9.955270 -4.404252 -3.391345 0.270927 -8.009708 -0.010830 22.995464 -4.006135 -0.002841 -82.954788 -15.235850 -46.010075 -19.002018 -0.003718 -17.001503 -0.002182 7.999156 -0.194408 71.736679 3.998933 18.547716 34.849937 -17.727509 -9.814560 7.066053 0.000000 0.000000 -26.152355 10.975475 -0.001708 57.222641 -1.972635 -0.090052 8.884896 0.934340 2.654958 -8.175701 -24.468418 -0.001792 15.480434 2.337879 0.158982 27.979666 -0.075851 -2.177883 
1.360692 4.254616 9.933361 -0.027859 86.000122 89.973763 -0.344328 -0.723901 -0.576606 -0.439931 -0.625970 -0.450480 0.000000 0.000000 0.000000 9.915761 -4.558054 -2.437905 0.270927 -8.009708 -0.010830 22.995464 -4.006135 -0.002841 -82.954788 -15.235850 -46.010075 -19.002018 -0.003718 -17.001503 -0.002182 7.999156 -0.194408 71.736679 3.998933 18.547716 34.522156 -17.726652 -9.869146 7.065771 0.000000 0.000000 -26.152355 10.975475 -0.001708 57.222641 -1.972635 -0.090052 8.884896 0.934340 2.654958 -8.175607 -24.468426 -0.001798 15.480248 2.337878 0.158986 27.979666 -0.075851 -2.177883 
1.360692 4.254616 9.933361 -0.027859 86.000122 89.973763 -0.344328 -0.723901 -0.576606 -0.439931 -0.625970 -0.450480 0.000000 0.000000 0.000000 9.873632 -4.711329 -1.483201 0.270927 -8.009708 -0.010830 22.995464 -4.006135 -0.002841 -82.954788 -15.235850 -46.010075 -19.002018 -0.003718 -17.001503 -0.002182 7.999156 -0.194408 71.736679 3.998933 18.547716 34.194801 -17.725498 -9.923656 7.065489 0.000000 0.000000 -26.152355 10.975475 -0.001708 57.222641 -1.972635 -0.090052 8.884896 0.934340 2.654958 -8.175513 -24.468431 -0.001803 15.480065 2.337878 0.158989 27.979666 -0.075851 -2.177883 
1.360692 4.254616 9.933361 -0.027859 86.000122 89.973763 -0.344328 -0.723901 -0.576606 -0.439931 -0.625970 -0.450480 0.000000 0.000000 0.000000 9.828901 -4.864016 -0.527355 0.270927 -8.009708 -0.010830 22.995464 -4.006135 -0.002841 -82.954788 -15.235850 -46.010075 -19.002018 -0.003718 -17.001503 -0.002182 7.999156 -0.194408 71.736679 3.998933 18.547716 33.867882 -17.724047 -9.978083 7.065208 0.000000 0.000000 -26.152355 10.975475 -0.001708 57.222641 -1.972635 -0.090052 8.884896 0.934340 2.654958 -8.175417 -24.468437 -0.001809 15.479879 2.337877 0.158992 27.979666 -0.075851 -2.177883 
1.360692 4.254616 9.933361 -0.027859 86.000122 89.973763 -0.344328 -0.723901 -0.576606 -0.439931 -0.625970 -0.450480 0.000000 0.000000 0.000000 9.781574 -5.016044 0.429511 0.270927 -8.009708 -0.010830 22.995464 -4.006135 -0.002841 -82.954788 -15.235850 -46.010075 -19.002018 -0.003718 -17.001503 -0.002182 7.999156 -0.194408 71.736679 3.998933 18.547716 33.541424 -17.722315 -10.032433 7.064927 0.000000 0.000000 -26.152355 10.975475 -0.001708 57.222641 -1.972635 -0.090052 8.884896 0.934340 2.654958 -8.175323 -24.468447 -0.001815 15.479696 2.337877 0.158995 27.979666 -0.075851 -2.177883 
